<?xml version="1.0" standalone="no"?>
<!DOCTYPE svg PUBLIC "-//W3C//DTD SVG 20010904//EN"
 "http://www.w3.org/TR/2001/REC-SVG-20010904/DTD/svg10.dtd">
<svg version="1.0" xmlns="http://www.w3.org/2000/svg"
  width="148px" height="26px" viewBox="0 0 900.000000 900.000000"
 preserveAspectRatio="xMidYMid meet">
<metadata>
Created by potrace 1.10, written by Peter Selinger 2001-2011
</metadata>
<g transform="translate(0.000000,900.000000) scale(0.100000,-0.100000)"
fill="#000000" stroke="none">
<path d="M1910 8975 c-539 -88 -1039 -366 -1371 -764 -285 -341 -459 -724
-519 -1147 -15 -111 -12 -545 6 -661 123 -821 714 -1522 1507 -1787 255 -85
496 -120 777 -113 211 6 307 19 515 72 775 198 1395 817 1599 1595 61 234 70
307 70 580 0 269 -7 333 -69 575 -210 818 -872 1444 -1725 1630 -117 26 -143
28 -415 31 -213 2 -312 -1 -375 -11z m530 -26 c778 -71 1440 -523 1788 -1219
309 -615 307 -1353 -4 -1971 -339 -676 -1004 -1132 -1763 -1209 -661 -66
-1351 191 -1810 676 -569 601 -755 1442 -494 2229 319 958 1279 1587 2283
1494z"/>
<path d="M2193 8894 c-3 -8 -3 -53 0 -100 2 -46 4 -84 3 -84 0 0 -30 40 -66
90 -68 94 -84 107 -106 89 -11 -9 -12 -37 -8 -133 7 -127 18 -161 45 -134 11
11 13 34 8 99 -3 46 -5 85 -4 86 1 1 25 -31 54 -71 72 -102 96 -123 116 -106
14 12 16 30 10 134 -7 114 -15 146 -37 146 -5 0 -11 -7 -15 -16z m-127 -56
c10 -13 15 -20 10 -16 -5 4 -15 3 -23 -3 -10 -9 -13 -6 -13 15 0 32 2 32 26 4z
m-19 -120 c-2 -13 -4 -5 -4 17 -1 22 1 32 4 23 2 -10 2 -28 0 -40z m168 -46
c-5 -14 -7 -14 -15 -2 -5 9 -4 20 3 28 14 17 22 0 12 -26z"/>
<path d="M2379 8875 c-62 -34 -79 -166 -29 -220 44 -46 141 -56 198 -19 17 11
22 24 22 60 0 50 -5 54 -71 57 -33 2 -44 -2 -47 -14 -2 -12 7 -18 32 -23 26
-5 36 -12 36 -26 0 -25 -15 -33 -63 -33 -70 0 -105 64 -77 139 24 61 94 74
132 24 27 -37 58 -40 58 -6 0 15 -12 34 -31 50 -24 21 -41 26 -82 26 -29 -1
-64 -7 -78 -15z m-32 -147 c-2 -13 -4 -5 -4 17 -1 22 1 32 4 23 2 -10 2 -28 0
-40z"/>
<path d="M1763 8844 c-5 -14 17 -121 36 -174 2 -8 -34 20 -81 63 -142 128
-154 106 -81 -145 10 -36 19 -48 33 -48 10 0 21 4 24 9 5 7 -13 78 -39 161 -5
16 19 0 79 -54 47 -42 92 -76 100 -76 34 0 34 24 2 140 -17 63 -35 121 -39
128 -11 17 -26 15 -34 -4z m-118 -94 c0 -7 -6 -15 -12 -17 -8 -3 -13 4 -13 17
0 13 5 20 13 18 6 -3 12 -11 12 -18z m187 -95 c6 -29 -3 -38 -26 -29 -15 6
-15 7 0 19 11 7 15 19 11 29 -4 9 -3 15 2 12 5 -3 11 -17 13 -31z"/>
<path d="M2760 8830 c-22 -14 -3 -39 35 -46 27 -5 36 -11 32 -23 -2 -9 -17
-58 -33 -109 -24 -80 -26 -95 -13 -103 7 -5 19 -7 24 -6 6 2 26 50 45 108 l35
105 32 -9 c54 -16 90 13 40 32 -77 29 -186 58 -197 51z"/>
<path d="M1377 8712 c-14 -15 -15 -36 -10 -145 4 -86 10 -131 19 -138 21 -17
34 -1 34 40 0 37 2 39 52 60 l52 21 28 -27 c27 -26 29 -26 46 -10 16 17 12 23
-84 117 -55 55 -105 100 -111 100 -5 0 -17 -8 -26 -18z m76 -87 l39 -44 -37
-16 c-42 -17 -48 -18 -42 -7 3 4 1 31 -2 60 -4 28 -5 52 -2 51 3 0 23 -20 44
-44z m-56 -107 c-3 -7 -5 -2 -5 12 0 14 2 19 5 13 2 -7 2 -19 0 -25z"/>
<path d="M2991 8626 c-65 -65 -92 -99 -88 -110 9 -23 30 -20 56 8 l22 24 49
-21 c46 -19 49 -23 52 -61 2 -33 7 -41 23 -41 25 0 33 46 34 186 1 99 -3 109
-43 109 -6 0 -54 -42 -105 -94z m101 -13 c-2 -32 -6 -59 -7 -61 -2 -2 -19 3
-38 11 l-35 15 41 46 c23 25 42 46 43 46 0 0 -1 -26 -4 -57z"/>
<path d="M1216 8635 c-3 -9 -6 -43 -6 -76 l0 -58 -59 32 c-49 27 -61 30 -74
19 -25 -21 -11 -36 64 -72 58 -28 75 -43 100 -83 30 -49 44 -54 62 -25 8 11 4
24 -14 49 -20 28 -25 49 -29 129 -4 77 -8 95 -21 98 -9 2 -19 -4 -23 -13z"/>
<path d="M3243 8624 c-3 -8 -3 -45 0 -82 6 -61 4 -69 -24 -115 -24 -38 -27
-52 -18 -63 19 -23 33 -16 63 32 23 36 43 53 102 82 41 20 74 42 74 50 0 25
-33 25 -86 -1 -30 -15 -57 -27 -59 -27 -3 0 -5 32 -5 70 0 64 -2 70 -20 70
-11 0 -23 -7 -27 -16z m42 -143 c3 -5 1 -12 -5 -16 -5 -3 -10 1 -10 9 0 18 6
21 15 7z"/>
<path d="M2110 8564 c-404 -48 -687 -157 -970 -375 -508 -391 -778 -1035 -695
-1661 112 -852 768 -1495 1617 -1587 408 -45 839 60 1183 286 964 635 1107
1987 295 2803 -274 276 -614 450 -1010 516 -85 15 -354 26 -420 18z m290 -44
c227 -20 414 -72 620 -171 846 -407 1228 -1392 879 -2264 -148 -370 -438 -697
-794 -894 -522 -290 -1188 -290 -1710 0 -290 161 -543 414 -704 704 -278 500
-291 1120 -36 1638 178 360 462 641 825 816 297 143 599 199 920 171z"/>
<path d="M1005 7997 c-3 -6 -4 -498 -3 -1092 l3 -1080 24 -47 c42 -82 91 -117
396 -281 160 -86 369 -199 465 -252 96 -52 207 -108 246 -125 66 -27 74 -28
138 -19 140 19 407 152 914 451 220 131 258 164 292 255 20 53 20 73 18 1126
l-3 1072 -1243 3 c-992 2 -1244 0 -1247 -11z m2465 -657 l0 -640 -218 0 -219
0 -12 84 c-35 251 -182 454 -405 561 -108 51 -185 68 -311 68 -292 1 -533
-154 -659 -424 -34 -72 -66 -198 -66 -259 l0 -30 -275 0 -275 0 0 640 0 640
1220 0 1220 0 0 -640z m-954 15 c282 -94 466 -335 481 -630 7 -131 -13 -222
-73 -344 -79 -160 -216 -280 -396 -347 -96 -35 -275 -45 -383 -20 -123 29
-229 89 -326 186 -140 139 -198 267 -206 457 -6 133 11 225 62 332 97 202 265
335 490 387 93 21 253 12 351 -21z m-928 -717 c8 -109 47 -229 107 -328 44
-72 146 -180 195 -206 19 -11 37 -22 40 -25 3 -3 34 -20 70 -36 55 -26 134
-49 235 -68 20 -4 20 -12 20 -424 l0 -420 -23 -6 c-23 -6 -202 75 -347 158
-33 18 -134 74 -225 124 -151 82 -210 114 -430 232 -92 49 -145 99 -176 165
-24 51 -24 51 -24 459 l0 407 278 0 278 0 2 -32z m1880 -380 c-3 -407 -3 -414
-26 -459 -42 -84 -99 -123 -537 -372 -260 -147 -576 -297 -626 -297 -5 0 -9
164 -9 419 l0 418 80 6 c270 21 493 172 605 409 41 88 65 175 65 240 l0 48
226 0 225 0 -3 -412z"/>
<path d="M2334 7876 c-70 -17 -107 -42 -192 -130 -50 -52 -84 -78 -110 -86
-46 -13 -62 -26 -88 -70 l-20 -35 86 3 c82 4 90 2 156 -31 145 -73 288 -102
425 -85 129 15 136 22 44 43 -117 26 -177 51 -228 95 -46 41 -85 51 -117 30
-11 -7 -5 -10 23 -10 29 0 46 -8 70 -30 36 -34 141 -90 168 -90 10 0 21 -5 25
-12 5 -8 -18 -10 -92 -6 -106 6 -216 38 -324 93 -46 24 -66 28 -122 27 -38 -1
-68 2 -68 7 0 14 34 38 74 51 26 8 62 37 114 91 84 88 127 113 224 129 80 14
105 9 63 -12 -16 -9 -43 -29 -60 -44 -16 -15 -41 -29 -55 -30 -59 -4 -62 -7
-15 -15 48 -8 51 -7 85 26 19 19 69 50 110 69 l75 35 -100 0 c-55 0 -123 -6
-151 -13z"/>
<path d="M2625 7793 c-11 -3 -60 -21 -109 -41 l-89 -35 -74 18 c-40 10 -76 15
-80 12 -3 -4 3 -7 15 -7 12 0 22 -4 22 -10 0 -5 13 -10 29 -10 17 0 33 -4 36
-10 9 -14 66 -12 106 3 33 13 35 12 66 -20 18 -19 27 -36 21 -39 -5 -4 -58 -3
-117 0 -100 7 -161 2 -161 -13 0 -10 160 -12 337 -5 170 6 205 18 81 26 -71 5
-168 37 -168 56 0 5 35 25 78 45 70 33 73 46 7 30z"/>
<path d="M2275 7223 c22 -3 45 -9 51 -14 16 -13 23 -67 10 -73 -6 -2 -3 -5 8
-5 16 -1 18 4 12 31 -10 49 -33 68 -80 66 l-41 -1 40 -4z"/>
<path d="M2210 7199 c-6 -11 -10 -27 -8 -35 2 -8 8 1 14 20 12 40 10 46 -6 15z"/>
<path d="M2253 7153 c15 -2 39 -2 55 0 15 2 2 4 -28 4 -30 0 -43 -2 -27 -4z"/>
<path d="M1880 7140 c0 -5 9 -10 20 -10 11 0 20 5 20 10 0 6 -9 10 -20 10 -11
0 -20 -4 -20 -10z"/>
<path d="M1930 7138 c0 -4 7 -8 15 -8 8 0 15 4 15 8 0 5 -7 9 -15 9 -8 0 -15
-4 -15 -9z"/>
<path d="M2590 7140 c0 -5 16 -10 35 -10 19 0 35 5 35 10 0 6 -16 10 -35 10
-19 0 -35 -4 -35 -10z"/>
<path d="M2200 7100 c0 -16 2 -30 4 -30 2 0 6 14 8 30 3 17 1 30 -4 30 -4 0
-8 -13 -8 -30z"/>
<path d="M2238 7123 c7 -3 16 -2 19 1 4 3 -2 6 -13 5 -11 0 -14 -3 -6 -6z"/>
<path d="M1952 7095 c0 -16 2 -22 5 -12 2 9 2 23 0 30 -3 6 -5 -1 -5 -18z"/>
<path d="M2342 7095 c0 -16 2 -22 5 -12 2 9 2 23 0 30 -3 6 -5 -1 -5 -18z"/>
<path d="M2582 7095 c0 -16 2 -22 5 -12 2 9 2 23 0 30 -3 6 -5 -1 -5 -18z"/>
<path d="M2610 7095 c0 -14 4 -25 8 -25 4 0 9 11 10 25 1 14 -3 25 -8 25 -6 0
-10 -11 -10 -25z"/>
<path d="M2641 7093 c0 -25 1 -26 9 -8 12 27 12 35 0 35 -5 0 -10 -12 -9 -27z"/>
<path d="M1898 7053 c7 -3 16 -2 19 1 4 3 -2 6 -13 5 -11 0 -14 -3 -6 -6z"/>
<path d="M1931 7038 c1 -18 2 -19 6 -5 2 9 9 15 14 12 5 -4 9 -1 9 4 0 6 -7
11 -15 11 -9 0 -15 -9 -14 -22z"/>
<path d="M2210 7053 c0 -5 20 -8 45 -8 25 0 45 3 45 8 0 4 -20 7 -45 7 -25 0
-45 -3 -45 -7z"/>
<path d="M2311 7038 c1 -16 3 -18 6 -6 2 9 12 19 21 21 12 3 10 5 -5 6 -18 1
-23 -4 -22 -21z"/>
<path d="M2590 7040 c0 -11 2 -20 4 -20 2 0 6 9 9 20 3 11 1 20 -4 20 -5 0 -9
-9 -9 -20z"/>
<path d="M2628 7053 c6 -2 18 -2 25 0 6 3 1 5 -13 5 -14 0 -19 -2 -12 -5z"/>
<path d="M2001 7034 c0 -11 3 -14 6 -6 3 7 2 16 -1 19 -3 4 -6 -2 -5 -13z"/>
<path d="M2031 7034 c0 -11 3 -14 6 -6 3 7 2 16 -1 19 -3 4 -6 -2 -5 -13z"/>
<path d="M2058 7043 c7 -3 16 -2 19 1 4 3 -2 6 -13 5 -11 0 -14 -3 -6 -6z"/>
<path d="M2090 7035 c0 -8 2 -15 4 -15 2 0 6 7 10 15 3 8 1 15 -4 15 -6 0 -10
-7 -10 -15z"/>
<path d="M2121 7034 c0 -11 3 -14 6 -6 3 7 2 16 -1 19 -3 4 -6 -2 -5 -13z"/>
<path d="M2186 7035 c4 -8 8 -15 10 -15 2 0 4 7 4 15 0 8 -4 15 -10 15 -5 0
-7 -7 -4 -15z"/>
<path d="M2376 7035 c4 -8 8 -15 10 -15 2 0 4 7 4 15 0 8 -4 15 -10 15 -5 0
-7 -7 -4 -15z"/>
<path d="M2471 7034 c0 -11 3 -14 6 -6 3 7 2 16 -1 19 -3 4 -6 -2 -5 -13z"/>
<path d="M2501 7034 c0 -11 3 -14 6 -6 3 7 2 16 -1 19 -3 4 -6 -2 -5 -13z"/>
<path d="M2566 7035 c4 -8 8 -15 10 -15 2 0 4 7 4 15 0 8 -4 15 -10 15 -5 0
-7 -7 -4 -15z"/>
<path d="M1880 7030 c0 -6 7 -10 15 -10 8 0 15 2 15 4 0 2 -7 6 -15 10 -8 3
-15 1 -15 -4z"/>
<path d="M2248 7023 c7 -3 16 -2 19 1 4 3 -2 6 -13 5 -11 0 -14 -3 -6 -6z"/>
<path d="M2628 7023 c6 -2 18 -2 25 0 6 3 1 5 -13 5 -14 0 -19 -2 -12 -5z"/>
<path d="M2045 7000 c-3 -5 -1 -10 4 -10 6 0 11 5 11 10 0 6 -2 10 -4 10 -3 0
-8 -4 -11 -10z"/>
<path d="M2105 7000 l-40 -7 43 -2 c23 0 42 4 42 9 0 6 -1 9 -2 9 -2 -1 -21
-5 -43 -9z"/>
<path d="M2200 7000 c0 -5 5 -10 11 -10 5 0 7 5 4 10 -3 6 -8 10 -11 10 -2 0
-4 -4 -4 -10z"/>
<path d="M2261 6988 c-1 -27 1 -28 47 -26 l47 1 -42 4 c-33 3 -43 8 -46 26 -4
18 -5 17 -6 -5z"/>
<path d="M2360 7000 c0 -5 5 -10 11 -10 5 0 7 5 4 10 -3 6 -8 10 -11 10 -2 0
-4 -4 -4 -10z"/>
<path d="M2390 7000 c0 -5 5 -10 11 -10 5 0 7 5 4 10 -3 6 -8 10 -11 10 -2 0
-4 -4 -4 -10z"/>
<path d="M2451 6988 c-1 -26 2 -28 39 -28 37 0 40 2 39 28 -2 23 -2 24 -6 5
-3 -18 -11 -23 -33 -23 -22 0 -30 5 -33 23 -4 19 -4 18 -6 -5z"/>
<path d="M2575 7000 c3 -5 8 -10 11 -10 2 0 4 5 4 10 0 6 -5 10 -11 10 -5 0
-7 -4 -4 -10z"/>
<path d="M2619 7005 c-1 -3 -2 -11 -3 -17 -1 -8 -16 -13 -39 -13 -20 0 -37 -3
-37 -7 0 -5 20 -8 45 -8 41 0 45 2 45 25 0 22 -8 35 -11 20z"/>
<path d="M1950 6984 c0 -13 -8 -15 -35 -12 -19 2 -35 0 -35 -4 0 -4 18 -8 40
-8 33 0 40 3 40 20 0 11 -2 20 -5 20 -3 0 -5 -7 -5 -16z"/>
<path d="M2488 6993 c7 -3 16 -2 19 1 4 3 -2 6 -13 5 -11 0 -14 -3 -6 -6z"/>
<path d="M2660 6984 c0 -8 -4 -12 -10 -9 -5 3 -10 1 -10 -4 0 -6 7 -11 15 -11
8 0 15 9 15 20 0 11 -2 20 -5 20 -3 0 -5 -7 -5 -16z"/>
<path d="M2010 6970 l-45 -7 48 -1 c26 -1 47 3 47 8 0 6 -1 9 -2 8 -2 0 -23
-4 -48 -8z"/>
<path d="M2105 6970 l-40 -7 43 -2 c23 0 42 4 42 9 0 6 -1 9 -2 9 -2 -1 -21
-5 -43 -9z"/>
<path d="M2164 6968 c-3 -4 15 -8 40 -8 25 0 46 2 46 4 0 8 -82 11 -86 4z"/>
<path d="M2360 6968 c0 -5 18 -8 40 -8 22 0 40 2 40 4 0 2 -18 6 -40 8 -22 2
-40 0 -40 -4z"/>
<path d="M1902 6925 c0 -16 2 -22 5 -12 2 9 2 23 0 30 -3 6 -5 -1 -5 -18z"/>
<path d="M1932 6925 c0 -16 2 -22 5 -12 2 9 2 23 0 30 -3 6 -5 -1 -5 -18z"/>
<path d="M2002 6925 c0 -16 2 -22 5 -12 2 9 2 23 0 30 -3 6 -5 -1 -5 -18z"/>
<path d="M2090 6927 c0 -15 4 -27 8 -27 10 0 9 36 -1 46 -4 4 -7 -5 -7 -19z"/>
<path d="M2120 6923 c0 -29 12 -24 17 7 2 11 -2 20 -7 20 -6 0 -10 -12 -10
-27z"/>
<path d="M2168 6943 c15 -3 22 -10 18 -18 -3 -8 -1 -17 4 -20 6 -4 10 5 10 19
0 22 -4 26 -27 25 -25 -2 -26 -2 -5 -6z"/>
<path d="M2210 6940 c0 -5 5 -10 10 -10 6 0 10 5 10 10 0 6 -4 10 -10 10 -5 0
-10 -4 -10 -10z"/>
<path d="M2245 6940 c3 -5 8 -10 11 -10 2 0 4 5 4 10 0 6 -5 10 -11 10 -5 0
-7 -4 -4 -10z"/>
<path d="M2285 6940 c-3 -5 -1 -10 4 -10 6 0 11 5 11 10 0 6 -2 10 -4 10 -3 0
-8 -4 -11 -10z"/>
<path d="M2310 6926 c0 -31 6 -34 13 -6 3 11 1 23 -4 26 -5 3 -9 -6 -9 -20z"/>
<path d="M2340 6940 c0 -5 5 -10 10 -10 6 0 10 5 10 10 0 6 -4 10 -10 10 -5 0
-10 -4 -10 -10z"/>
<path d="M2382 6925 c0 -16 2 -22 5 -12 2 9 2 23 0 30 -3 6 -5 -1 -5 -18z"/>
<path d="M2465 6940 c-3 -5 -1 -10 4 -10 6 0 11 5 11 10 0 6 -2 10 -4 10 -3 0
-8 -4 -11 -10z"/>
<path d="M2502 6930 c0 -14 2 -19 5 -12 2 6 2 18 0 25 -3 6 -5 1 -5 -13z"/>
<path d="M2535 6940 c3 -5 8 -10 11 -10 2 0 4 5 4 10 0 6 -5 10 -11 10 -5 0
-7 -4 -4 -10z"/>
<path d="M2572 6925 c0 -16 2 -22 5 -12 2 9 2 23 0 30 -3 6 -5 -1 -5 -18z"/>
<path d="M2590 6927 c0 -15 4 -27 10 -27 5 0 9 9 7 20 -5 31 -17 36 -17 7z"/>
<path d="M2630 6939 c0 -5 5 -7 10 -4 6 3 10 8 10 11 0 2 -4 4 -10 4 -5 0 -10
-5 -10 -11z"/>
<path d="M2660 6940 c0 -5 5 -10 10 -10 6 0 10 5 10 10 0 6 -4 10 -10 10 -5 0
-10 -4 -10 -10z"/>
<path d="M1865 6910 c-3 -5 -1 -10 4 -10 6 0 11 5 11 10 0 6 -2 10 -4 10 -3 0
-8 -4 -11 -10z"/>
<path d="M2210 6910 c0 -5 5 -10 10 -10 6 0 10 5 10 10 0 6 -4 10 -10 10 -5 0
-10 -4 -10 -10z"/>
<path d="M2280 6910 c0 -5 5 -10 10 -10 6 0 10 5 10 10 0 6 -4 10 -10 10 -5 0
-10 -4 -10 -10z"/>
<path d="M2340 6910 c0 -5 7 -10 16 -10 8 0 12 5 9 10 -3 6 -10 10 -16 10 -5
0 -9 -4 -9 -10z"/>
<path d="M2665 6910 c3 -5 8 -10 11 -10 2 0 4 5 4 10 0 6 -5 10 -11 10 -5 0
-7 -4 -4 -10z"/>
<path d="M1860 6883 c0 -5 11 -8 25 -8 14 0 25 3 25 8 0 4 -11 7 -25 7 -14 0
-25 -3 -25 -7z"/>
<path d="M1930 6881 c0 -4 16 -7 36 -5 27 2 34 -1 30 -12 -3 -8 -1 -14 4 -14
6 0 10 9 10 20 0 17 -7 20 -40 20 -22 0 -40 -4 -40 -9z"/>
<path d="M2024 6882 c3 -5 19 -7 36 -4 23 3 30 0 30 -12 0 -9 4 -16 8 -16 4 0
8 9 8 20 0 17 -7 20 -44 20 -24 0 -41 -4 -38 -8z"/>
<path d="M2120 6870 c0 -11 4 -20 10 -20 5 0 7 7 4 15 -5 11 2 15 26 15 24 0
31 -4 26 -15 -3 -8 -1 -15 4 -15 6 0 10 9 10 20 0 17 -7 20 -40 20 -33 0 -40
-3 -40 -20z"/>
<path d="M2210 6870 c0 -11 4 -20 10 -20 5 0 7 6 4 14 -4 10 4 14 30 14 42 0
48 -15 9 -21 -26 -4 -26 -4 5 -6 26 -1 32 3 32 19 0 17 -7 20 -45 20 -38 0
-45 -3 -45 -20z"/>
<path d="M2310 6870 c0 -11 4 -20 10 -20 5 0 7 6 4 14 -4 11 2 14 25 14 19 -1
32 -7 34 -17 3 -10 5 -8 6 7 1 19 -4 22 -39 22 -33 0 -40 -3 -40 -20z"/>
<path d="M2400 6886 c0 -2 18 -6 40 -8 22 -2 40 0 40 4 0 5 -18 8 -40 8 -22 0
-40 -2 -40 -4z"/>
<path d="M2494 6883 c4 -4 22 -6 41 -5 25 3 34 -1 38 -15 4 -14 5 -13 6 5 1
20 -4 22 -46 22 -25 0 -43 -3 -39 -7z"/>
<path d="M2591 6868 c1 -16 3 -18 6 -6 3 11 15 16 39 16 20 0 38 3 41 6 4 3
-15 6 -40 6 -42 0 -47 -2 -46 -22z"/>
<path d="M1958 6853 c7 -3 16 -2 19 1 4 3 -2 6 -13 5 -11 0 -14 -3 -6 -6z"/>
<path d="M2043 6853 c9 -2 23 -2 30 0 6 3 -1 5 -18 5 -16 0 -22 -2 -12 -5z"/>
<path d="M2348 6853 c7 -3 16 -2 19 1 4 3 -2 6 -13 5 -11 0 -14 -3 -6 -6z"/>
<path d="M2458 6853 c7 -3 16 -2 19 1 4 3 -2 6 -13 5 -11 0 -14 -3 -6 -6z"/>
<path d="M2538 6853 c7 -3 16 -2 19 1 4 3 -2 6 -13 5 -11 0 -14 -3 -6 -6z"/>
<path d="M1859 6833 c-1 -5 -1 -12 0 -17 1 -5 -4 -13 -11 -17 -10 -7 -9 -9 5
-9 12 0 17 8 17 25 0 23 -8 36 -11 18z"/>
<path d="M2095 6830 c-19 -8 -19 -9 3 -9 12 -1 22 4 22 9 0 6 -1 10 -2 9 -2 0
-12 -4 -23 -9z"/>
<path d="M2450 6816 c0 -24 4 -26 40 -26 35 0 40 3 39 23 -1 16 -2 18 -6 5 -3
-12 -14 -18 -35 -18 -22 0 -29 4 -25 15 4 8 2 17 -3 20 -6 4 -10 -5 -10 -19z"/>
<path d="M2615 6830 c-3 -5 -1 -10 4 -10 6 0 11 5 11 10 0 6 -2 10 -4 10 -3 0
-8 -4 -11 -10z"/>
<path d="M2640 6830 c0 -5 5 -10 11 -10 5 0 7 5 4 10 -3 6 -8 10 -11 10 -2 0
-4 -4 -4 -10z"/>
<path d="M1950 6814 c0 -13 -8 -15 -35 -12 -19 2 -35 0 -35 -4 0 -4 18 -8 40
-8 33 0 40 3 40 20 0 11 -2 20 -5 20 -3 0 -5 -7 -5 -16z"/>
<path d="M2183 6823 c9 -2 25 -2 35 0 9 3 1 5 -18 5 -19 0 -27 -2 -17 -5z"/>
<path d="M2678 6823 c7 -3 16 -2 19 1 4 3 -2 6 -13 5 -11 0 -14 -3 -6 -6z"/>
<path d="M2010 6800 l-45 -7 48 -1 c26 -1 47 3 47 8 0 6 -1 9 -2 8 -2 0 -23
-4 -48 -8z"/>
<path d="M2105 6800 l-40 -7 43 -2 c23 0 42 4 42 9 0 6 -1 9 -2 9 -2 -1 -21
-5 -43 -9z"/>
<path d="M2164 6798 c-3 -4 15 -8 40 -8 25 0 46 2 46 4 0 8 -82 11 -86 4z"/>
<path d="M2260 6798 c0 -4 21 -8 48 -7 52 1 48 6 -10 11 -21 2 -38 0 -38 -4z"/>
<path d="M2360 6798 c0 -5 18 -8 40 -8 22 0 40 2 40 4 0 2 -18 6 -40 8 -22 2
-40 0 -40 -4z"/>
<path d="M2540 6798 c0 -5 20 -8 45 -8 25 0 45 3 45 8 0 4 -20 7 -45 7 -25 0
-45 -3 -45 -7z"/>
<path d="M2640 6798 c0 -4 16 -8 35 -8 19 0 35 2 35 4 0 2 -16 6 -35 8 -19 2
-35 0 -35 -4z"/>
<path d="M1842 6760 c0 -14 2 -19 5 -12 2 6 2 18 0 25 -3 6 -5 1 -5 -13z"/>
<path d="M2002 6760 c0 -14 2 -19 5 -12 2 6 2 18 0 25 -3 6 -5 1 -5 -13z"/>
<path d="M2090 6761 c0 -12 5 -21 10 -21 6 0 10 6 10 14 0 8 -4 18 -10 21 -5
3 -10 -3 -10 -14z"/>
<path d="M2122 6755 c0 -16 2 -22 5 -12 2 9 2 23 0 30 -3 6 -5 -1 -5 -18z"/>
<path d="M2192 6755 c0 -16 2 -22 5 -12 2 9 2 23 0 30 -3 6 -5 -1 -5 -18z"/>
<path d="M2210 6753 c0 -29 12 -24 17 7 2 11 -2 20 -7 20 -6 0 -10 -12 -10
-27z"/>
<path d="M2287 6760 c-3 -11 -1 -20 4 -20 5 0 9 9 9 20 0 11 -2 20 -4 20 -2 0
-6 -9 -9 -20z"/>
<path d="M2310 6754 c0 -14 4 -23 9 -20 5 3 7 15 4 26 -7 28 -13 25 -13 -6z"/>
<path d="M2345 6770 c-3 -5 -1 -10 4 -10 6 0 11 5 11 10 0 6 -2 10 -4 10 -3 0
-8 -4 -11 -10z"/>
<path d="M2382 6755 c0 -16 2 -22 5 -12 2 9 2 23 0 30 -3 6 -5 -1 -5 -18z"/>
<path d="M2572 6755 c0 -16 2 -22 5 -12 2 9 2 23 0 30 -3 6 -5 -1 -5 -18z"/>
<path d="M2590 6760 c0 -11 4 -20 9 -20 5 0 7 9 4 20 -3 11 -7 20 -9 20 -2 0
-4 -9 -4 -20z"/>
<path d="M2625 6770 c-3 -5 -1 -10 4 -10 6 0 11 5 11 10 0 6 -2 10 -4 10 -3 0
-8 -4 -11 -10z"/>
<path d="M2662 6760 c0 -14 2 -19 5 -12 2 6 2 18 0 25 -3 6 -5 1 -5 -13z"/>
<path d="M2694 6755 c-1 -14 2 -25 7 -25 5 0 9 11 9 25 0 33 -15 33 -16 0z"/>
<path d="M1960 6739 c0 -5 5 -7 10 -4 6 3 10 8 10 11 0 2 -4 4 -10 4 -5 0 -10
-5 -10 -11z"/>
<path d="M2058 6743 c7 -3 16 -2 19 1 4 3 -2 6 -13 5 -11 0 -14 -3 -6 -6z"/>
<path d="M2345 6740 c3 -5 8 -10 11 -10 2 0 4 5 4 10 0 6 -5 10 -11 10 -5 0
-7 -4 -4 -10z"/>
<path d="M2435 6740 c3 -5 8 -10 11 -10 2 0 4 5 4 10 0 6 -5 10 -11 10 -5 0
-7 -4 -4 -10z"/>
<path d="M2538 6743 c7 -3 16 -2 19 1 4 3 -2 6 -13 5 -11 0 -14 -3 -6 -6z"/>
<path d="M2625 6740 c3 -5 8 -10 11 -10 2 0 4 5 4 10 0 6 -5 10 -11 10 -5 0
-7 -4 -4 -10z"/>
<path d="M1830 6710 c0 -5 8 -6 17 -3 12 5 15 2 10 -10 -3 -9 -2 -17 3 -17 6
0 10 9 10 20 0 13 -7 20 -20 20 -11 0 -20 -4 -20 -10z"/>
<path d="M1880 6700 c0 -17 7 -20 40 -20 33 0 40 3 40 20 0 17 -7 20 -40 20
-33 0 -40 -3 -40 -20z m70 0 c0 -5 -13 -10 -30 -10 -16 0 -30 5 -30 10 0 6 14
10 30 10 17 0 30 -4 30 -10z"/>
<path d="M2008 6713 c33 -3 42 -8 38 -19 -3 -8 -1 -14 4 -14 6 0 10 9 10 20 0
17 -6 20 -47 18 l-48 -1 43 -4z"/>
<path d="M2102 6713 c24 -3 38 -10 41 -21 3 -12 5 -11 6 6 1 20 -3 22 -41 20
l-43 -1 37 -4z"/>
<path d="M2170 6700 c0 -13 6 -20 18 -19 10 0 12 3 5 6 -25 9 -13 22 25 26
l37 4 -42 1 c-37 2 -43 -1 -43 -18z"/>
<path d="M2260 6700 c0 -11 4 -20 10 -20 5 0 7 6 4 14 -4 11 5 16 38 19 l43 4
-47 1 c-42 2 -48 -1 -48 -18z"/>
<path d="M2360 6712 c0 -4 18 -6 40 -4 22 2 40 6 40 8 0 2 -18 4 -40 4 -22 0
-40 -3 -40 -8z"/>
<path d="M2450 6700 c0 -15 6 -20 28 -19 23 2 24 2 5 6 -34 6 -28 23 8 23 24
0 30 -4 25 -15 -3 -8 -1 -15 4 -15 6 0 10 9 10 20 0 17 -7 20 -40 20 -33 0
-40 -3 -40 -20z"/>
<path d="M2540 6712 c0 -4 19 -6 42 -4 35 4 40 2 35 -12 -4 -9 -2 -16 3 -16 6
0 10 9 10 20 0 17 -7 20 -45 20 -25 0 -45 -3 -45 -8z"/>
<path d="M2640 6700 c0 -17 6 -20 38 -18 36 1 36 1 5 5 -45 6 -42 21 5 26 l37
4 -42 1 c-37 2 -43 -1 -43 -18z"/>
<path d="M2008 6683 c7 -3 16 -2 19 1 4 3 -2 6 -13 5 -11 0 -14 -3 -6 -6z"/>
<path d="M2088 6683 c7 -3 16 -2 19 1 4 3 -2 6 -13 5 -11 0 -14 -3 -6 -6z"/>
<path d="M2218 6683 c6 -2 18 -2 25 0 6 3 1 5 -13 5 -14 0 -19 -2 -12 -5z"/>
<path d="M2398 6683 c6 -2 18 -2 25 0 6 3 1 5 -13 5 -14 0 -19 -2 -12 -5z"/>
<path d="M2121 6648 c-1 -26 2 -28 39 -28 37 0 40 2 39 28 -2 23 -2 24 -6 5
-3 -18 -11 -23 -33 -23 -22 0 -30 5 -33 23 -4 19 -4 18 -6 -5z"/>
<path d="M2210 6647 c0 -25 3 -27 45 -27 40 0 45 2 44 23 -1 17 -2 18 -6 4 -4
-14 -13 -17 -36 -15 -18 2 -32 8 -32 15 0 6 -3 15 -7 19 -5 4 -8 -5 -8 -19z"/>
<path d="M2250 6660 c0 -5 5 -10 11 -10 5 0 7 5 4 10 -3 6 -8 10 -11 10 -2 0
-4 -4 -4 -10z"/>
<path d="M2310 6646 c0 -24 4 -26 40 -26 37 0 40 2 39 28 -1 21 -3 22 -6 6 -3
-16 -12 -21 -34 -22 -22 0 -29 3 -25 13 3 8 1 17 -4 20 -6 4 -10 -5 -10 -19z"/>
<path d="M2570 6650 c0 -17 -5 -20 -35 -17 -20 3 -38 0 -41 -4 -3 -5 15 -9 40
-9 42 0 46 2 46 25 0 14 -2 25 -5 25 -3 0 -5 -9 -5 -20z"/>
<path d="M2000 6646 c0 -10 -10 -14 -35 -12 -19 2 -35 -1 -35 -5 0 -5 18 -9
40 -9 33 0 40 3 40 20 0 11 -2 20 -5 20 -3 0 -5 -6 -5 -14z"/>
<path d="M2591 6643 c-1 -21 4 -23 46 -23 25 0 43 3 39 7 -4 4 -22 6 -41 5
-25 -3 -34 1 -38 15 -4 14 -5 13 -6 -4z"/>
<path d="M1840 6628 c0 -5 18 -8 40 -8 22 0 40 2 40 4 0 2 -18 6 -40 8 -22 2
-40 0 -40 -4z"/>
<path d="M2023 6628 c-2 -5 17 -8 43 -8 26 0 44 3 41 6 -9 10 -78 11 -84 2z"/>
<path d="M2410 6628 c0 -5 16 -8 35 -8 19 0 35 3 35 8 0 4 -16 7 -35 7 -19 0
-35 -3 -35 -7z"/>
<path d="M2690 6628 c0 -5 11 -8 25 -8 14 0 25 3 25 8 0 4 -11 7 -25 7 -14 0
-25 -3 -25 -7z"/>
<path d="M1812 6585 c0 -16 2 -22 5 -12 2 9 2 23 0 30 -3 6 -5 -1 -5 -18z"/>
<path d="M1840 6603 c0 -5 16 -8 35 -8 19 0 35 3 35 8 0 4 -16 7 -35 7 -19 0
-35 -3 -35 -7z"/>
<path d="M1931 6583 c1 -21 3 -23 6 -7 5 26 60 30 66 5 3 -10 5 -8 6 7 1 19
-4 22 -39 22 -37 0 -40 -2 -39 -27z"/>
<path d="M2033 6603 c9 -2 25 -2 35 0 9 3 1 5 -18 5 -19 0 -27 -2 -17 -5z"/>
<path d="M2138 6603 c12 -2 32 -2 45 0 12 2 2 4 -23 4 -25 0 -35 -2 -22 -4z"/>
<path d="M2293 6593 c15 -16 19 -16 27 -3 5 8 7 17 4 19 -3 3 -9 -1 -14 -9 -7
-10 -10 -11 -10 -2 0 6 -5 12 -12 12 -8 0 -6 -7 5 -17z"/>
<path d="M2348 6603 c7 -3 16 -2 19 1 4 3 -2 6 -13 5 -11 0 -14 -3 -6 -6z"/>
<path d="M2382 6580 c0 -19 2 -27 5 -17 2 9 2 25 0 35 -3 9 -5 1 -5 -18z"/>
<path d="M2418 6603 c7 -3 16 -2 19 1 4 3 -2 6 -13 5 -11 0 -14 -3 -6 -6z"/>
<path d="M2456 6602 c7 -4 14 -16 17 -27 4 -15 5 -14 6 8 1 20 -4 27 -16 27
-12 0 -14 -3 -7 -8z"/>
<path d="M2498 6588 c5 -19 7 -20 10 -5 6 27 59 23 65 -5 4 -20 4 -19 6 5 1
26 -1 27 -43 27 -41 0 -44 -2 -38 -22z"/>
<path d="M2590 6584 c0 -14 4 -23 10 -19 5 3 6 13 3 22 -5 13 0 15 30 11 21
-2 37 0 37 4 0 4 -18 8 -40 8 -36 0 -40 -2 -40 -26z"/>
<path d="M2690 6590 c0 -11 4 -20 10 -20 5 0 7 7 3 17 -5 13 -2 15 15 11 12
-4 22 -2 22 3 0 5 -11 9 -25 9 -18 0 -25 -5 -25 -20z"/>
<path d="M2340 6579 c0 -5 5 -7 10 -4 6 3 10 8 10 11 0 2 -4 4 -10 4 -5 0 -10
-5 -10 -11z"/>
<path d="M1960 6569 c0 -5 5 -7 10 -4 6 3 10 8 10 11 0 2 -4 4 -10 4 -5 0 -10
-5 -10 -11z"/>
<path d="M2410 6569 c0 -5 5 -7 10 -4 6 3 10 8 10 11 0 2 -4 4 -10 4 -5 0 -10
-5 -10 -11z"/>
<path d="M2726 6572 c-3 -5 1 -9 9 -9 8 0 15 4 15 9 0 4 -4 8 -9 8 -6 0 -12
-4 -15 -8z"/>
<path d="M2206 6535 c-24 -22 -26 -31 -26 -99 0 -41 -3 -81 -6 -90 -3 -9 -1
-16 5 -16 7 0 11 30 11 88 0 95 7 109 60 131 23 9 23 10 4 10 -12 1 -33 -10
-48 -24z"/>
<path d="M2308 6553 c7 -3 16 -2 19 1 4 3 -2 6 -13 5 -11 0 -14 -3 -6 -6z"/>
<path d="M1810 6541 c0 -4 11 -6 25 -3 21 4 25 0 26 -19 1 -13 1 -27 0 -31 0
-5 11 -8 27 -7 26 0 26 1 5 9 -16 6 -23 18 -23 35 0 21 -5 25 -30 25 -16 0
-30 -4 -30 -9z"/>
<path d="M1880 6542 c0 -4 16 -6 35 -4 36 4 50 -13 18 -21 -14 -4 -12 -5 5 -6
16 -1 22 5 22 19 0 17 -7 20 -40 20 -22 0 -40 -4 -40 -8z"/>
<path d="M2008 6543 c33 -3 42 -8 38 -19 -3 -8 -1 -14 4 -14 6 0 10 9 10 20 0
17 -6 20 -47 18 l-48 -1 43 -4z"/>
<path d="M2083 6543 c9 -2 23 -2 30 0 6 3 -1 5 -18 5 -16 0 -22 -2 -12 -5z"/>
<path d="M2350 6535 c14 -17 13 -17 -10 -11 l-25 8 22 -16 c12 -9 24 -29 26
-44 2 -15 3 -10 2 11 -3 34 -2 37 13 25 16 -12 16 -11 1 11 -9 14 -22 27 -30
30 -12 3 -11 1 1 -14z"/>
<path d="M2408 6543 c6 -2 18 -2 25 0 6 3 1 5 -13 5 -14 0 -19 -2 -12 -5z"/>
<path d="M2451 6523 c2 -24 2 -25 6 -5 3 17 11 22 35 22 23 0 29 -4 24 -15 -3
-8 -1 -15 4 -15 6 0 10 9 10 20 0 17 -7 20 -40 20 -37 0 -40 -2 -39 -27z"/>
<path d="M2540 6542 c0 -4 19 -6 42 -4 34 4 40 2 35 -11 -3 -9 -2 -19 3 -22 6
-4 10 5 10 19 0 24 -3 26 -45 26 -25 0 -45 -3 -45 -8z"/>
<path d="M2640 6530 c0 -11 4 -20 10 -20 5 0 7 6 4 14 -4 11 4 16 33 19 l38 4
-42 1 c-37 2 -43 -1 -43 -18z"/>
<path d="M2738 6543 c7 -3 16 -2 19 1 4 3 -2 6 -13 5 -11 0 -14 -3 -6 -6z"/>
<path d="M2250 6533 c-29 -11 -50 -36 -50 -60 0 -13 4 -22 9 -19 5 3 7 14 4
24 -6 24 14 39 63 51 26 6 31 9 14 9 -14 0 -32 -2 -40 -5z"/>
<path d="M1808 6513 c6 -2 18 -2 25 0 6 3 1 5 -13 5 -14 0 -19 -2 -12 -5z"/>
<path d="M2005 6510 c4 -6 11 -8 16 -5 14 9 11 15 -7 15 -8 0 -12 -5 -9 -10z"/>
<path d="M2560 6516 c0 -2 7 -6 15 -10 8 -3 15 -1 15 4 0 6 -7 10 -15 10 -8 0
-15 -2 -15 -4z"/>
<path d="M2676 6508 c3 -4 11 -5 19 -1 21 7 19 12 -4 10 -11 0 -18 -5 -15 -9z"/>
<path d="M2302 6497 c10 -8 16 -16 13 -19 -3 -2 2 -5 10 -5 23 0 13 19 -16 29
-21 7 -22 7 -7 -5z"/>
<path d="M2125 6490 c-3 -5 -2 -10 4 -10 5 0 13 5 16 10 3 6 2 10 -4 10 -5 0
-13 -4 -16 -10z"/>
<path d="M2240 6490 c-8 -5 -11 -12 -8 -16 4 -3 14 1 23 10 18 17 9 21 -15 6z"/>
<path d="M2530 6490 c0 -5 5 -10 11 -10 5 0 7 5 4 10 -3 6 -8 10 -11 10 -2 0
-4 -4 -4 -10z"/>
<path d="M1931 6473 c-1 -20 4 -23 39 -23 35 0 40 3 39 23 -1 16 -2 18 -6 5
-3 -12 -14 -18 -33 -18 -19 0 -30 6 -33 18 -4 13 -5 11 -6 -5z"/>
<path d="M2090 6476 c0 -9 -13 -16 -32 -19 -30 -3 -30 -4 7 -5 35 -2 41 1 41
18 0 11 -4 20 -8 20 -4 0 -8 -6 -8 -14z"/>
<path d="M2466 6476 c4 -9 -3 -16 -18 -19 -21 -4 -20 -4 5 -6 21 -1 27 4 27
19 0 11 -4 20 -10 20 -5 0 -7 -6 -4 -14z"/>
<path d="M2570 6476 c0 -10 -13 -16 -37 -19 l-38 -4 43 -1 c36 -2 42 1 42 18
0 11 -2 20 -5 20 -3 0 -5 -6 -5 -14z"/>
<path d="M2591 6473 c-1 -21 3 -23 47 -21 l47 1 -42 4 c-29 3 -43 9 -46 21 -3
12 -5 11 -6 -5z"/>
<path d="M2757 6474 c5 -14 0 -16 -30 -12 -21 2 -37 0 -37 -4 0 -4 18 -8 40
-8 33 0 40 3 40 20 0 11 -4 20 -10 20 -5 0 -7 -7 -3 -16z"/>
<path d="M1798 6453 c7 -3 16 -2 19 1 4 3 -2 6 -13 5 -11 0 -14 -3 -6 -6z"/>
<path d="M1853 6453 c15 -2 37 -2 50 0 12 2 0 4 -28 4 -27 0 -38 -2 -22 -4z"/>
<path d="M2120 6456 c0 -2 7 -7 16 -10 8 -3 12 -2 9 4 -6 10 -25 14 -25 6z"/>
<path d="M2342 6435 c0 -16 2 -22 5 -12 2 9 2 23 0 30 -3 6 -5 -1 -5 -18z"/>
<path d="M1792 6415 c0 -16 2 -22 5 -12 2 9 2 23 0 30 -3 6 -5 -1 -5 -18z"/>
<path d="M1862 6415 c0 -16 2 -22 5 -12 2 9 2 23 0 30 -3 6 -5 -1 -5 -18z"/>
<path d="M2202 6388 c-2 -54 -1 -58 21 -57 16 1 17 3 5 6 -13 3 -18 18 -21 56
l-3 52 -2 -57z"/>
<path d="M2617 6420 c-3 -11 -1 -23 4 -26 5 -3 9 6 9 20 0 31 -6 34 -13 6z"/>
<path d="M2641 6418 c-1 -16 4 -28 9 -28 12 0 12 8 0 35 -8 18 -9 17 -9 -7z"/>
<path d="M2772 6415 c0 -16 2 -22 5 -12 2 9 2 23 0 30 -3 6 -5 -1 -5 -18z"/>
<path d="M1880 6409 c0 -11 4 -18 10 -14 5 3 7 12 3 20 -7 21 -13 19 -13 -6z"/>
<path d="M1952 6410 c0 -14 2 -19 5 -12 2 6 2 18 0 25 -3 6 -5 1 -5 -13z"/>
<path d="M2052 6410 c0 -14 2 -19 5 -12 2 6 2 18 0 25 -3 6 -5 1 -5 -13z"/>
<path d="M2360 6384 c0 -27 -4 -43 -10 -39 -5 3 -10 1 -10 -4 0 -6 7 -11 15
-11 11 0 15 12 15 50 0 28 -2 50 -5 50 -3 0 -5 -21 -5 -46z"/>
<path d="M2452 6410 c0 -14 2 -19 5 -12 2 6 2 18 0 25 -3 6 -5 1 -5 -13z"/>
<path d="M2522 6410 c0 -14 2 -19 5 -12 2 6 2 18 0 25 -3 6 -5 1 -5 -13z"/>
<path d="M2542 6410 c0 -14 2 -19 5 -12 2 6 2 18 0 25 -3 6 -5 1 -5 -13z"/>
<path d="M2100 6400 c0 -5 5 -10 11 -10 5 0 7 5 4 10 -3 6 -8 10 -11 10 -2 0
-4 -4 -4 -10z"/>
<path d="M2480 6399 c0 -5 5 -7 10 -4 6 3 10 8 10 11 0 2 -4 4 -10 4 -5 0 -10
-5 -10 -11z"/>
<path d="M2670 6400 c0 -13 11 -13 30 0 12 8 11 10 -7 10 -13 0 -23 -4 -23
-10z"/>
<path d="M2341 6374 c0 -11 3 -14 6 -6 3 7 2 16 -1 19 -3 4 -6 -2 -5 -13z"/>
<path d="M1780 6371 c0 -5 -3 -16 -6 -25 -3 -9 -1 -16 5 -16 6 0 11 9 11 20 0
27 18 25 23 -2 4 -20 4 -19 6 5 1 21 -4 27 -19 27 -11 0 -20 -4 -20 -9z"/>
<path d="M1830 6376 c0 -2 18 -6 40 -8 22 -2 40 0 40 4 0 5 -18 8 -40 8 -22 0
-40 -2 -40 -4z"/>
<path d="M1931 6353 c2 -24 2 -25 6 -5 6 28 59 32 66 5 4 -14 5 -12 6 5 1 19
-4 22 -39 22 -37 0 -40 -2 -39 -27z"/>
<path d="M2030 6372 c0 -5 14 -7 30 -4 25 4 30 1 30 -17 0 -11 4 -21 9 -21 5
0 8 11 7 25 -1 22 -6 25 -38 25 -21 0 -38 -4 -38 -8z"/>
<path d="M2120 6369 c0 -5 5 -7 10 -4 6 3 10 8 10 11 0 2 -4 4 -10 4 -5 0 -10
-5 -10 -11z"/>
<path d="M2420 6376 c0 -2 14 -6 30 -8 17 -3 30 -1 30 4 0 4 -13 8 -30 8 -16
0 -30 -2 -30 -4z"/>
<path d="M2527 6373 c33 -3 43 -8 46 -26 4 -18 5 -17 6 6 1 26 -1 27 -46 25
l-48 -1 42 -4z"/>
<path d="M2590 6355 c0 -14 4 -25 9 -25 5 0 7 9 4 21 -5 19 -2 20 30 18 20 -2
39 0 43 4 4 4 -14 7 -39 7 -43 0 -47 -2 -47 -25z"/>
<path d="M2690 6373 c0 -10 68 -9 77 1 3 3 -12 6 -35 6 -23 0 -42 -3 -42 -7z"/>
<path d="M2782 6355 c0 -16 2 -22 5 -12 2 9 2 23 0 30 -3 6 -5 -1 -5 -18z"/>
<path d="M1850 6340 c-13 -9 -13 -10 0 -10 8 0 22 5 30 10 13 9 13 10 0 10 -8
0 -22 -5 -30 -10z"/>
<path d="M1958 6343 c7 -3 16 -2 19 1 4 3 -2 6 -13 5 -11 0 -14 -3 -6 -6z"/>
<path d="M2055 6340 c3 -5 10 -10 16 -10 5 0 9 5 9 10 0 6 -7 10 -16 10 -8 0
-12 -4 -9 -10z"/>
<path d="M2120 6340 c0 -5 10 -10 23 -10 18 0 19 2 7 10 -19 13 -30 13 -30 0z"/>
<path d="M2380 6339 c0 -5 9 -9 20 -9 11 0 20 2 20 4 0 2 -9 6 -20 9 -11 3
-20 1 -20 -4z"/>
<path d="M2435 6340 c4 -6 11 -8 16 -5 14 9 11 15 -7 15 -8 0 -12 -5 -9 -10z"/>
<path d="M2530 6340 c0 -5 7 -7 15 -4 8 4 15 8 15 10 0 2 -7 4 -15 4 -8 0 -15
-4 -15 -10z"/>
<path d="M2750 6340 c0 -5 5 -10 11 -10 5 0 7 5 4 10 -3 6 -8 10 -11 10 -2 0
-4 -4 -4 -10z"/>
<path d="M1463 6633 c-7 -3 -13 -14 -13 -26 0 -12 -9 -33 -20 -47 -11 -14 -20
-30 -20 -37 0 -21 -59 -71 -92 -79 -18 -4 -27 -9 -20 -11 19 -7 3 -23 -23 -23
-13 0 -27 -5 -30 -10 -4 -6 -14 -9 -23 -8 -27 5 -25 -28 2 -46 14 -9 45 -18
70 -21 64 -6 110 -31 125 -68 25 -61 28 -72 51 -147 12 -41 39 -115 60 -165
59 -141 64 -155 49 -155 -5 0 -9 -9 -9 -20 0 -11 5 -20 10 -20 6 0 15 -10 20
-22 5 -13 9 -17 9 -10 1 9 6 10 24 1 12 -7 29 -15 37 -19 8 -5 14 -18 12 -31
-1 -17 1 -20 7 -10 11 17 23 -1 15 -23 -4 -12 -2 -15 9 -11 10 4 21 -8 36 -37
12 -24 19 -34 16 -23 -5 15 -3 17 5 9 6 -6 13 -20 14 -30 2 -11 9 -19 17 -19
10 0 13 -10 11 -31 -3 -28 2 -35 49 -64 35 -21 48 -34 40 -40 -9 -5 -8 -9 6
-15 10 -5 23 -9 28 -10 6 0 9 -6 8 -13 -2 -6 3 -9 11 -6 8 3 17 1 21 -5 3 -6
0 -11 -7 -11 -13 0 4 -9 133 -69 67 -31 113 -39 124 -22 3 5 7 49 9 98 2 48 0
72 -3 53 -6 -33 -7 -31 -35 55 -16 49 -42 115 -58 147 -15 32 -28 63 -28 68 0
6 -4 10 -10 10 -5 0 -10 7 -10 15 0 8 -4 15 -9 15 -5 0 -7 10 -4 23 3 16 2 18
-5 8 -7 -10 -11 -10 -17 -1 -4 7 -2 16 5 20 9 5 9 9 1 14 -6 4 -11 2 -11 -4 0
-6 -4 -8 -10 -5 -5 3 -10 24 -10 45 0 21 -5 42 -11 45 -6 4 -8 13 -5 21 3 9 0
11 -11 7 -13 -5 -15 -2 -10 11 4 10 3 15 -3 11 -6 -3 -19 10 -31 29 -15 26
-30 37 -55 42 -18 3 -31 10 -28 15 3 5 0 8 -8 7 -8 -2 -12 5 -10 17 2 15 0 17
-6 6 -11 -15 -27 3 -17 19 3 6 -1 10 -9 10 -9 0 -13 6 -10 14 3 9 -1 13 -12
13 -11 -1 -24 9 -31 25 -8 15 -27 35 -44 45 -17 10 -27 23 -24 31 3 10 0 12
-10 8 -9 -3 -15 0 -15 9 0 9 -6 12 -17 8 -13 -5 -15 -2 -10 11 5 12 2 16 -11
14 -9 -2 -16 3 -14 10 1 6 -5 12 -13 12 -9 0 -12 6 -9 15 4 9 -3 19 -20 26
-14 7 -26 16 -26 20 0 5 -6 6 -13 3 -32 -12 -42 26 -39 140 4 161 -6 203 -45
189z m26 -158 c-1 -66 -1 -127 0 -136 0 -9 62 -72 137 -140 119 -108 187 -182
307 -329 31 -39 25 -22 -9 25 -23 32 -23 66 0 42 43 -44 86 -113 86 -139 0
-18 16 -53 41 -90 53 -77 99 -177 138 -301 33 -104 37 -137 20 -154 -24 -24
-155 42 -267 134 -37 30 -79 61 -94 69 -30 16 -33 21 -18 44 9 15 11 13 14
-12 0 -6 8 -13 16 -15 12 -4 12 -3 2 5 -8 5 -13 13 -12 17 2 4 -15 28 -36 53
-22 25 -60 75 -87 111 -33 47 -55 67 -75 71 -15 3 -27 11 -27 17 0 7 -7 18
-15 25 -12 11 -12 11 -1 -4 16 -21 -1 -24 -18 -4 -21 26 19 29 48 4 l26 -23
-22 25 c-38 44 -131 251 -166 370 -18 63 -38 125 -45 137 -14 26 -88 63 -125
63 -15 0 -44 7 -65 16 l-37 17 45 14 c25 7 53 12 62 9 10 -2 17 -1 16 3 -2 20
5 20 35 1 l32 -22 -29 25 c-20 17 -25 27 -16 32 7 4 17 1 22 -6 8 -12 9 -11 5
1 -2 8 12 34 32 56 20 23 42 63 50 89 21 73 32 37 30 -100z m111 -215 c0 -5
-2 -10 -4 -10 -3 0 -8 5 -11 10 -3 6 -1 10 4 10 6 0 11 -4 11 -10z"/>
<path d="M1456 6525 c-4 -14 -2 -33 4 -43 8 -13 9 -11 4 13 -4 23 -3 26 5 15
9 -12 11 -10 11 13 0 34 -16 35 -24 2z"/>
<path d="M1400 6461 c0 -5 5 -13 10 -16 6 -3 10 -2 10 4 0 5 -4 13 -10 16 -5
3 -10 2 -10 -4z"/>
<path d="M1254 6368 c9 -5 31 -6 48 -3 21 5 28 4 24 -4 -8 -13 1 -13 29 -1 20
9 20 9 0 11 -76 7 -117 6 -101 -3z"/>
<path d="M2120 5415 c0 -9 5 -15 11 -13 6 2 11 8 11 13 0 5 -5 11 -11 13 -6 2
-11 -4 -11 -13z"/>
<path d="M1532 6590 c0 -14 2 -19 5 -12 2 6 2 18 0 25 -3 6 -5 1 -5 -13z"/>
<path d="M1533 6485 c0 -27 2 -38 4 -22 2 15 2 37 0 50 -2 12 -4 0 -4 -28z"/>
<path d="M1371 6498 c-14 -23 -14 -23 8 -4 22 20 25 26 13 26 -4 0 -13 -10
-21 -22z"/>
<path d="M1230 6420 c0 -5 5 -10 10 -10 6 0 10 5 10 10 0 6 -4 10 -10 10 -5 0
-10 -4 -10 -10z"/>
<path d="M1298 6303 c6 -2 18 -2 25 0 6 3 1 5 -13 5 -14 0 -19 -2 -12 -5z"/>
<path d="M1370 6280 c20 -13 33 -13 25 0 -3 6 -14 10 -23 10 -15 0 -15 -2 -2
-10z"/>
<path d="M1476 5997 c3 -10 9 -15 12 -12 3 3 0 11 -7 18 -10 9 -11 8 -5 -6z"/>
<path d="M1540 5860 c0 -5 5 -10 11 -10 5 0 7 5 4 10 -3 6 -8 10 -11 10 -2 0
-4 -4 -4 -10z"/>
<path d="M1650 5690 c0 -5 7 -10 16 -10 8 0 12 5 9 10 -3 6 -10 10 -16 10 -5
0 -9 -4 -9 -10z"/>
<path d="M3305 6572 c-47 -44 -95 -103 -95 -116 0 -16 17 -3 32 25 10 17 22
28 28 24 5 -3 7 0 4 8 -5 13 34 52 43 43 6 -6 -9 -36 -16 -32 -4 3 -7 -4 -7
-15 0 -26 3 -24 22 14 9 17 25 38 35 45 11 7 19 20 19 28 0 8 7 14 15 14 28 0
15 -36 -26 -75 -23 -22 -59 -62 -82 -90 -29 -37 -38 -43 -33 -25 5 17 4 21 -2
11 -8 -11 -10 -11 -15 0 -3 8 -3 1 -1 -16 4 -19 -4 -50 -20 -86 -13 -31 -32
-91 -40 -132 -9 -42 -27 -92 -40 -111 -28 -41 -38 -98 -27 -146 8 -30 9 -23
10 40 1 55 4 71 12 60 8 -12 9 -11 5 6 -4 11 1 28 10 40 13 16 15 16 10 2 -3
-10 -8 -58 -12 -108 -4 -49 -10 -88 -13 -86 -3 2 -6 -39 -6 -92 l0 -96 -47
-36 c-75 -56 -222 -142 -226 -131 -8 25 55 115 111 158 48 37 64 44 92 41 18
-2 31 0 29 4 -3 4 -19 8 -35 8 -16 0 -56 14 -89 30 -33 17 -65 30 -72 30 -7 0
-28 -23 -47 -50 -46 -68 -149 -163 -252 -233 -89 -61 -122 -69 -142 -35 -16
25 5 43 108 93 104 50 156 99 215 204 104 185 134 225 196 267 34 23 83 47
108 55 55 16 69 29 54 49 -8 12 -9 12 -4 -2 5 -17 -10 -35 -21 -25 -8 8 35
131 79 226 21 46 36 86 33 89 -3 3 -7 3 -9 1 -11 -13 -87 -194 -100 -240 -21
-70 -21 -70 -90 -104 -58 -30 -156 -109 -156 -126 0 -5 -11 -26 -24 -47 -13
-20 -49 -81 -81 -134 -69 -118 -115 -161 -227 -209 -75 -32 -98 -52 -98 -83 0
-27 24 -56 45 -56 15 0 64 20 80 33 6 4 51 37 100 73 95 69 158 132 202 200
20 31 31 40 42 34 76 -36 91 -44 91 -52 0 -4 -4 -8 -8 -8 -21 0 -104 -90 -127
-138 -26 -52 -26 -72 1 -72 15 0 223 127 262 160 21 18 24 29 27 122 3 90 14
206 30 303 30 184 74 281 180 395 41 44 75 83 75 88 0 15 -24 32 -44 32 -12 0
-44 -22 -71 -48z m55 18 c0 -5 -10 -15 -22 -21 -23 -12 -23 -12 -4 10 21 23
26 26 26 11z"/>
<path d="M3201 6392 c-17 -31 -13 -40 5 -14 9 13 14 26 11 29 -3 2 -10 -4 -16
-15z"/>
<path d="M3181 6334 c0 -11 3 -14 6 -6 3 7 2 16 -1 19 -3 4 -6 -2 -5 -13z"/>
<path d="M3132 6190 c0 -19 2 -27 5 -17 2 9 2 25 0 35 -3 9 -5 1 -5 -18z"/>
<path d="M3070 6067 c0 -9 -24 -32 -53 -50 -29 -19 -70 -53 -90 -77 -30 -35
-34 -46 -26 -62 9 -17 99 -81 132 -94 10 -4 17 30 29 143 9 81 15 150 12 152
-2 2 -4 -3 -4 -12z m-23 -129 c-4 -40 -9 -82 -11 -93 -2 -11 -5 -23 -5 -28 -2
-18 -121 55 -121 74 0 25 106 119 134 119 5 0 6 -32 3 -72z"/>
<path d="M3076 5904 c-10 -73 -7 -90 15 -115 l20 -24 -17 28 c-13 22 -15 40
-9 92 8 74 1 89 -9 19z"/>
<path d="M2996 5650 c-50 -33 -86 -60 -82 -60 10 0 176 108 176 115 0 8 -1 8
-94 -55z"/>
<path d="M3471 8486 c-10 -11 -6 -20 16 -40 15 -14 32 -26 36 -26 5 0 -24 -39
-63 -87 -69 -84 -81 -115 -49 -121 13 -2 102 93 156 167 2 3 17 -8 33 -24 26
-25 32 -27 45 -15 8 8 11 20 7 26 -7 10 -160 134 -166 134 -2 0 -9 -6 -15 -14z
m89 -80 c0 -3 -4 -8 -10 -11 -5 -3 -10 -1 -10 4 0 6 5 11 10 11 6 0 10 -2 10
-4z"/>
<path d="M937 8448 c-24 -13 -22 -37 19 -165 34 -111 52 -139 76 -115 7 7 7
20 -1 44 -11 32 -11 34 31 70 l43 36 34 -20 c32 -21 34 -21 47 -3 7 10 11 21
9 26 -6 8 -199 121 -226 131 -8 3 -23 2 -32 -4z m102 -135 c-16 -14 -31 -24
-33 -22 -3 4 -36 100 -36 106 0 1 22 -11 50 -28 l50 -31 -31 -25z m-42 -75
c-3 -7 -5 -2 -5 12 0 14 2 19 5 13 2 -7 2 -19 0 -25z"/>
<path d="M705 8230 l-59 -60 79 -81 c114 -115 107 -113 177 -41 53 55 59 65
56 98 -4 49 -46 83 -82 66 -21 -9 -23 -8 -19 9 9 32 -23 69 -60 69 -27 0 -44
-11 -92 -60z m103 -2 c18 -18 15 -29 -17 -67 l-28 -34 -29 27 -29 27 33 29
c35 33 51 37 70 18z m90 -70 c19 -19 14 -40 -19 -77 l-31 -33 -29 28 -29 28
32 33 c34 35 56 41 76 21z"/>
<path d="M3621 8225 c-116 -49 -142 -68 -123 -87 9 -9 20 -9 48 1 36 13 37 13
76 -27 l40 -39 -17 -33 c-15 -30 -15 -34 -1 -48 22 -23 32 -10 90 119 76 170
59 187 -113 114z m85 -56 c-13 -27 -26 -52 -28 -54 -2 -3 -17 8 -33 25 l-28
29 54 25 c30 13 55 25 56 25 1 1 -8 -22 -21 -50z"/>
<path d="M3856 8118 c-8 -13 -24 -48 -36 -80 -15 -41 -33 -66 -65 -92 -28 -23
-42 -42 -38 -51 8 -23 36 -18 79 15 29 22 50 30 84 30 80 1 120 11 120 31 0
27 -11 29 -84 21 -36 -5 -66 -8 -66 -7 0 1 9 19 19 41 30 62 34 89 17 103 -12
10 -17 8 -30 -11z m-16 -147 c0 -5 -7 -12 -16 -15 -14 -5 -15 -4 -4 9 14 17
20 19 20 6z"/>
<path d="M3745 8009 c-4 -6 -5 -12 -2 -15 2 -3 7 2 10 11 7 17 1 20 -8 4z"/>
<path d="M350 6063 c-58 -24 -111 -50 -118 -57 -10 -10 -7 -26 19 -87 37 -88
43 -96 63 -80 13 11 12 20 -11 72 -14 33 -24 61 -22 63 2 1 47 21 99 43 71 30
96 45 98 60 5 35 -19 32 -128 -14z"/>
<path d="M415 5843 c-106 -15 -121 -22 -111 -49 5 -13 15 -15 44 -12 36 5 38
4 65 -44 l28 -50 -21 -23 c-22 -23 -24 -55 -5 -62 16 -5 27 6 109 107 57 71
76 101 74 120 -3 22 -8 25 -43 26 -22 1 -85 -5 -140 -13z m2 -29 c-3 -3 -12
-4 -19 -1 -8 3 -5 6 6 6 11 1 17 -2 13 -5z m92 -44 l-42 -49 -18 36 c-10 20
-18 37 -16 38 1 1 27 7 57 12 30 6 56 11 58 12 2 0 -16 -21 -39 -49z"/>
<path d="M3905 5820 c-10 -16 1 -26 80 -75 76 -48 91 -62 55 -50 -12 4 -65 3
-120 0 -74 -6 -100 -11 -105 -23 -8 -21 4 -32 116 -102 86 -54 102 -61 114
-49 20 20 10 31 -75 83 l-74 46 115 0 c114 0 139 7 139 36 0 15 -200 144 -223
144 -9 0 -19 -4 -22 -10z m196 -135 c0 -6 -10 -12 -23 -13 -19 -4 -20 -2 -9
12 15 17 33 18 32 1z m-211 -30 c0 -8 -4 -15 -9 -15 -5 0 -14 7 -21 15 -10 13
-9 15 9 15 12 0 21 -6 21 -15z"/>
<path d="M547 5639 c-53 -39 -97 -75 -97 -81 0 -19 102 -149 114 -145 22 7 16
34 -20 81 l-37 49 24 18 c13 10 52 38 86 61 62 43 78 62 67 79 -12 20 -45 6
-137 -62z"/>
<path d="M3717 5553 c-15 -15 -4 -49 44 -139 67 -124 82 -142 103 -125 14 12
14 16 -3 49 l-19 37 37 41 c34 38 38 40 69 30 36 -10 59 2 49 27 -3 8 -57 31
-120 51 -115 36 -148 42 -160 29z m112 -64 c23 -7 41 -15 41 -18 -1 -8 -48
-61 -55 -61 -3 0 -5 5 -5 10 0 6 -12 29 -26 52 -18 27 -21 39 -11 35 8 -3 33
-11 56 -18z m69 -14 c-3 -3 -9 2 -12 12 -6 14 -5 15 5 6 7 -7 10 -15 7 -18z
m-78 -96 c0 -6 -4 -7 -10 -4 -5 3 -10 11 -10 16 0 6 5 7 10 4 6 -3 10 -11 10
-16z"/>
<path d="M686 5456 c-61 -24 -112 -48 -114 -55 -2 -6 1 -18 8 -26 9 -11 16
-11 45 1 34 14 34 14 69 -30 35 -42 36 -44 20 -74 -17 -35 -12 -52 14 -52 27
0 141 234 126 258 -18 28 -52 23 -168 -22z m97 -53 c-15 -27 -28 -50 -30 -53
-2 -2 -15 8 -29 24 -14 15 -24 29 -22 31 5 5 91 43 100 44 4 1 -5 -20 -19 -46z"/>
<path d="M3633 5444 c-6 -17 6 -45 57 -133 18 -29 27 -50 21 -47 -5 4 -41 27
-78 51 -72 48 -93 54 -112 31 -10 -11 -3 -32 31 -98 23 -45 44 -86 46 -91 2
-4 -34 19 -79 52 -62 45 -87 57 -96 49 -7 -6 -13 -16 -13 -22 0 -18 208 -158
228 -154 30 6 24 46 -21 133 -24 47 -43 85 -41 85 1 0 40 -25 86 -55 45 -30
88 -55 94 -55 6 0 17 7 25 16 11 13 5 31 -41 117 -70 135 -92 159 -107 121z
m-64 -121 c0 -5 -4 -17 -9 -28 -8 -18 -9 -17 -9 8 -1 15 4 27 9 27 6 0 10 -3
9 -7z m181 -78 c0 -9 -9 -15 -22 -15 -21 0 -21 0 -2 15 24 18 24 18 24 0z
m-120 -115 c0 -13 -5 -18 -15 -14 -16 7 -19 17 -8 27 12 13 23 7 23 -13z"/>
<path d="M902 5388 c-5 -7 -33 -62 -61 -122 -39 -84 -48 -112 -40 -122 19 -24
41 -16 127 46 45 32 82 56 82 52 0 -5 -4 -12 -9 -17 -5 -6 -26 -47 -46 -93
-29 -66 -34 -86 -24 -98 6 -8 17 -14 23 -14 7 0 58 34 115 76 99 74 120 104
80 112 -22 4 -170 -115 -163 -132 3 -8 1 -17 -5 -21 -6 -3 -14 2 -18 11 -4 11
-1 20 6 22 15 5 91 158 91 183 0 21 -26 43 -42 36 -7 -3 -44 -28 -81 -56 -37
-28 -69 -51 -71 -51 -2 0 17 38 41 86 36 68 42 88 33 100 -15 17 -25 18 -38 2z
m-42 -208 c0 -4 -7 -10 -15 -14 -10 -4 -15 1 -15 14 0 13 5 18 15 14 8 -4 15
-10 15 -14z"/>
<path d="M3300 5175 c-10 -12 -7 -39 14 -137 15 -68 33 -129 40 -137 23 -22
39 -3 32 40 -6 36 -4 39 39 69 l45 31 31 -22 c28 -20 32 -20 47 -5 15 15 15
18 -3 35 -35 35 -198 141 -216 141 -9 0 -22 -7 -29 -15z m109 -127 c-16 -10
-32 -18 -36 -18 -7 -1 -32 80 -33 102 0 4 22 -9 49 -29 l50 -37 -30 -18z"/>
<path d="M1120 5083 c-66 -101 -77 -135 -48 -141 21 -4 162 202 154 224 -14
35 -43 12 -106 -83z"/>
<path d="M1244 5081 c-43 -26 -78 -101 -71 -148 8 -45 48 -88 102 -109 64 -24
95 -16 121 30 12 22 20 44 18 50 -2 6 -25 22 -50 35 -35 19 -47 22 -57 12 -9
-10 -7 -16 11 -31 12 -10 27 -20 34 -22 8 -3 8 -9 0 -25 -10 -18 -17 -20 -47
-13 -65 15 -91 54 -74 112 21 78 100 107 146 54 12 -15 23 -36 23 -46 0 -25
17 -35 35 -20 34 28 5 89 -56 121 -48 24 -95 24 -135 0z"/>
<path d="M3057 5037 c-6 -16 109 -237 124 -237 20 0 154 80 154 92 0 22 -32
20 -84 -6 l-50 -26 -51 95 c-36 67 -57 95 -70 95 -10 0 -20 -6 -23 -13z"/>
<path d="M1466 4890 c-55 -63 -86 -106 -82 -115 8 -22 26 -18 56 10 l26 25 49
-19 c46 -17 50 -22 55 -57 4 -31 9 -39 25 -39 19 0 20 8 23 121 5 213 -19 224
-152 74z m104 -19 l0 -59 -40 15 -39 16 36 43 c19 24 37 44 39 44 2 0 4 -27 4
-59z m20 -77 c0 -8 -5 -12 -10 -9 -6 4 -8 11 -5 16 9 14 15 11 15 -7z"/>
<path d="M2904 4975 c-4 -8 -7 -75 -8 -148 -1 -129 0 -132 21 -135 19 -3 22 2
25 38 3 40 5 43 53 61 l49 19 28 -26 c28 -28 58 -27 58 0 0 9 -39 58 -87 111
-88 95 -125 116 -139 80z m79 -89 l36 -43 -39 -16 -40 -15 0 59 c0 32 2 59 4
59 2 0 20 -20 39 -44z"/>
<path d="M1723 4932 c-12 -8 -63 -203 -63 -241 0 -11 5 -23 10 -26 21 -13 37
16 54 95 10 44 19 80 20 80 2 0 18 -42 36 -92 37 -107 62 -141 84 -118 22 22
71 249 58 262 -23 23 -39 -2 -58 -86 -10 -47 -21 -82 -25 -78 -3 4 -18 43 -34
87 -28 82 -50 125 -63 125 -4 0 -12 -4 -19 -8z m32 -56 c12 -11 10 -13 -11
-13 -24 0 -30 7 -17 20 9 10 13 9 28 -7z m115 -177 c0 -11 -4 -17 -10 -14 -5
3 -10 1 -10 -6 0 -7 -3 -10 -6 -7 -6 6 13 48 21 48 3 0 5 -9 5 -21z"/>
<path d="M2700 4916 c-57 -15 -59 -28 -23 -166 22 -82 32 -106 47 -108 28 -6
36 16 21 65 -14 47 -14 48 32 58 54 11 83 41 83 86 0 74 -50 94 -160 65z m98
-38 c28 -28 4 -65 -54 -82 -18 -5 -22 -1 -27 21 -3 16 -9 36 -12 45 -5 12 0
18 17 21 44 8 64 7 76 -5z m-111 -50 c-3 -8 -6 -5 -6 6 -1 11 2 17 5 13 3 -3
4 -12 1 -19z m21 -69 c-3 -8 -7 -3 -11 10 -4 17 -3 21 5 13 5 -5 8 -16 6 -23z"/>
<path d="M2392 4870 c-130 -31 -133 -235 -4 -269 54 -15 154 13 166 46 9 23
-6 94 -21 100 -7 3 -34 2 -59 -2 -35 -5 -44 -10 -42 -23 2 -12 14 -17 38 -17
45 0 55 -35 15 -53 -77 -35 -135 3 -135 88 0 36 5 52 23 68 30 28 81 29 104 2
19 -21 48 -26 58 -10 11 17 -16 51 -50 66 -38 15 -44 16 -93 4z"/>
<path d="M2046 4862 c-3 -5 -8 -65 -12 -133 -6 -109 -5 -127 9 -132 26 -10 35
14 39 100 2 46 5 83 8 83 3 0 27 -41 54 -91 83 -152 110 -143 119 38 4 93 2
121 -9 133 -23 24 -34 0 -40 -97 l-7 -92 -50 87 c-27 48 -54 93 -59 100 -12
14 -44 16 -52 4z m48 -47 c3 -9 -3 -19 -14 -25 -17 -9 -20 -7 -20 15 0 27 24
35 34 10z m136 -171 c0 -22 -2 -25 -15 -14 -12 10 -13 16 -4 26 16 20 19 18
19 -12z"/>
</g>
</svg>
